<?xml version="1.0" encoding="utf-8"?>
<svg xmlns="http://www.w3.org/2000/svg" xmlns:xlink="http://www.w3.org/1999/xlink" style="margin: auto; background: none; display: block; z-index: 1; position: relative; shape-rendering: auto;" width="3000" height="135" preserveAspectRatio="xMidYMid" viewBox="0 0 3000 135">
<g transform="translate(1500,67.5) scale(1,1) translate(-1500,-67.5)"><path d="M-100 12.98C-51.33 7.91 -50.52 17.55 -3.03 17.55S46.32 7.21 93.94 7.21S143.72 16.42 190.91 16.42S240.52 18.22 287.88 18.22S336.8 13.96 384.85 13.96S433.48 7.56 481.82 7.56S531.04 16.57 578.79 16.57S627.33 11.16 675.76 11.16S725.08 13.6 772.73 13.6S822.26 9.69 869.7 9.69S918.89 11.56 966.67 11.56S1015.73 10.71 1063.64 10.71S1113.36 5.49 1160.61 5.49S1210.21 10.07 1257.58 10.07S1306.51 15.28 1354.55 15.28S1403.49 15.69 1451.52 15.69S1500.99 14.15 1548.48 14.15S1597.41 9.4 1645.45 9.4S1695.1 14.57 1742.42 14.57S1792.23 8.3 1839.39 8.3S1888.78 14.09 1936.36 14.09S1985.28 10.87 2033.33 10.87S2082.69 9.29 2130.3 9.29S2179.51 6.05 2227.27 6.05S2276.39 8.22 2324.24 8.22S2373.42 11.41 2421.21 11.41S2470.18 6.42 2518.18 6.42S2567.99 18.09 2615.15 18.09S2663.66 7.01 2712.12 7.01S2760.64 8.8 2809.09 8.8S2858.9 10.89 2906.06 10.89S2954.64 16.97 3003.03 16.97S3052.82 11.63 3100 11.63S3148.49 7.51 3196.97 7.51L3100 135 L-100 135 Z" fill="#44aa99" stroke-width="0">
  <animate attributeName="d" dur="25s" repeatCount="indefinite" values="M-100 12.98C-51.33 7.91 -50.52 17.55 -3.03 17.55S46.32 7.21 93.94 7.21S143.72 16.42 190.91 16.42S240.52 18.22 287.88 18.22S336.8 13.96 384.85 13.96S433.48 7.56 481.82 7.56S531.04 16.57 578.79 16.57S627.33 11.16 675.76 11.16S725.08 13.6 772.73 13.6S822.26 9.69 869.7 9.69S918.89 11.56 966.67 11.56S1015.73 10.71 1063.64 10.71S1113.36 5.49 1160.61 5.49S1210.21 10.07 1257.58 10.07S1306.51 15.28 1354.55 15.28S1403.49 15.69 1451.52 15.69S1500.99 14.15 1548.48 14.15S1597.41 9.4 1645.45 9.4S1695.1 14.57 1742.42 14.57S1792.23 8.3 1839.39 8.3S1888.78 14.09 1936.36 14.09S1985.28 10.87 2033.33 10.87S2082.69 9.29 2130.3 9.29S2179.51 6.05 2227.27 6.05S2276.39 8.22 2324.24 8.22S2373.42 11.41 2421.21 11.41S2470.18 6.42 2518.18 6.42S2567.99 18.09 2615.15 18.09S2663.66 7.01 2712.12 7.01S2760.64 8.8 2809.09 8.8S2858.9 10.89 2906.06 10.89S2954.64 16.97 3003.03 16.97S3052.82 11.63 3100 11.63S3148.49 7.51 3196.97 7.51L3100 135 L-100 135 Z;M-100 11.65C-50.42 14.21 -50.81 7.07 -3.03 7.07S46.68 8.91 93.94 8.91S143.7 17.94 190.91 17.94S240.44 17.16 287.88 17.16S337.47 6.24 384.85 6.24S433.69 12.39 481.82 12.39S530.85 7.56 578.79 7.56S627.46 12.17 675.76 12.17S724.58 6.23 772.73 6.23S821.55 12.31 869.7 12.31S918.85 10.78 966.67 10.78S1015.69 8.08 1063.64 8.08S1112.83 8.36 1160.61 8.36S1209.96 5.56 1257.58 5.56S1306.57 10.37 1354.55 10.37S1403.5 15.07 1451.52 15.07S1501.04 5.63 1548.48 5.63S1598.15 12.55 1645.45 12.55S1694.38 10.25 1742.42 10.25S1791.08 11.02 1839.39 11.02S1888.65 13.01 1936.36 13.01S1985.36 13.19 2033.33 13.19S2082.17 16.48 2130.3 16.48S2179.77 11.56 2227.27 11.56S2276.16 10.01 2324.24 10.01S2373.04 14.39 2421.21 14.39S2470.72 16.28 2518.18 16.28S2567.72 16.16 2615.15 16.16S2664.96 11.54 2712.12 11.54S2761.42 11.11 2809.09 11.11S2857.99 17.32 2906.06 17.32S2955.31 11.18 3003.03 11.18S3051.75 8.8 3100 8.8S3149.8 8.99 3196.97 8.99L3100 135 L-100 135 Z;M-100 12.98C-51.33 7.91 -50.52 17.55 -3.03 17.55S46.32 7.21 93.94 7.21S143.72 16.42 190.91 16.42S240.52 18.22 287.88 18.22S336.8 13.96 384.85 13.96S433.48 7.56 481.82 7.56S531.04 16.57 578.79 16.57S627.33 11.16 675.76 11.16S725.08 13.6 772.73 13.6S822.26 9.69 869.7 9.69S918.89 11.56 966.67 11.56S1015.73 10.71 1063.64 10.71S1113.36 5.49 1160.61 5.49S1210.21 10.07 1257.58 10.07S1306.51 15.28 1354.55 15.28S1403.49 15.69 1451.52 15.69S1500.99 14.15 1548.48 14.15S1597.41 9.4 1645.45 9.4S1695.1 14.57 1742.42 14.57S1792.23 8.3 1839.39 8.3S1888.78 14.09 1936.36 14.09S1985.28 10.87 2033.33 10.87S2082.69 9.29 2130.3 9.29S2179.51 6.05 2227.27 6.05S2276.39 8.22 2324.24 8.22S2373.42 11.41 2421.21 11.41S2470.18 6.42 2518.18 6.42S2567.99 18.09 2615.15 18.09S2663.66 7.01 2712.12 7.01S2760.64 8.8 2809.09 8.8S2858.9 10.89 2906.06 10.89S2954.64 16.97 3003.03 16.97S3052.82 11.63 3100 11.63S3148.49 7.51 3196.97 7.51L3100 135 L-100 135 Z"></animate>
  <animateTransform attributeName="transform" type="translate" dur="25s" begin="0s" repeatCount="indefinite" values="0;10;0" calcMode="spline" keySplines="0.3 0 0.7 1;0.3 0 0.7 1"></animateTransform>
</path><path d="M-100 35.71C-44.24 36.14 -43.06 41.42 11.3 41.42S67.35 41.59 122.61 41.59S179.07 46.77 233.91 46.77S289.78 41.71 345.22 41.71S401.9 44.15 456.52 44.15S513.37 38.03 567.83 38.03S624.28 45.43 679.13 45.43S735.37 44.09 790.43 44.09S846.58 38.57 901.74 38.57S957.41 48.36 1013.04 48.36S1069.83 47.7 1124.35 47.7S1180.24 37.67 1235.65 37.67S1291.83 42.08 1346.96 42.08S1403.37 44.19 1458.26 44.19S1514.55 45.86 1569.57 45.86S1625.88 32.05 1680.87 32.05S1736.59 42.51 1792.17 42.51S1848.11 43.83 1903.48 43.83S1960.09 38.42 2014.78 38.42S2071.01 43.85 2126.09 43.85S2182.96 37.39 2237.39 37.39S2293.19 35.86 2348.7 35.86S2405.38 41.57 2460 41.57S2516.08 39.07 2571.3 39.07S2627.08 44.14 2682.61 44.14S2738.7 44.39 2793.91 44.39S2850.9 44.38 2905.22 44.38S2961.79 48.61 3016.52 48.61S3073.47 37.86 3127.83 37.86L3100 135 L-100 135 Z" fill="#0071aa" stroke-width="0">
  <animate attributeName="d" dur="12.5s" repeatCount="indefinite" values="M-100 35.71C-44.24 36.14 -43.06 41.42 11.3 41.42S67.35 41.59 122.61 41.59S179.07 46.77 233.91 46.77S289.78 41.71 345.22 41.71S401.9 44.15 456.52 44.15S513.37 38.03 567.83 38.03S624.28 45.43 679.13 45.43S735.37 44.09 790.43 44.09S846.58 38.57 901.74 38.57S957.41 48.36 1013.04 48.36S1069.83 47.7 1124.35 47.7S1180.24 37.67 1235.65 37.67S1291.83 42.08 1346.96 42.08S1403.37 44.19 1458.26 44.19S1514.55 45.86 1569.57 45.86S1625.88 32.05 1680.87 32.05S1736.59 42.51 1792.17 42.51S1848.11 43.83 1903.48 43.83S1960.09 38.42 2014.78 38.42S2071.01 43.85 2126.09 43.85S2182.96 37.39 2237.39 37.39S2293.19 35.86 2348.7 35.86S2405.38 41.57 2460 41.57S2516.08 39.07 2571.3 39.07S2627.08 44.14 2682.61 44.14S2738.7 44.39 2793.91 44.39S2850.9 44.38 2905.22 44.38S2961.79 48.61 3016.52 48.61S3073.47 37.86 3127.83 37.86L3100 135 L-100 135 Z;M-100 34.62C-43.82 40.15 -44.34 42.33 11.3 42.33S68.14 38.34 122.61 38.34S178.85 37.28 233.91 37.28S290.08 32.16 345.22 32.16S401.56 43.43 456.52 43.43S512.61 35.31 567.83 35.31S624.3 48.34 679.13 48.34S736.09 45.18 790.43 45.18S846.92 37.73 901.74 37.73S958.72 41.08 1013.04 41.08S1069.58 41.88 1124.35 41.88S1181.23 38.05 1235.65 38.05S1291.73 46.35 1346.96 46.35S1403.51 33.98 1458.26 33.98S1514.33 46.01 1569.57 46.01S1626.19 43.08 1680.87 43.08S1736.69 43.86 1792.17 43.86S1849.11 35.17 1903.48 35.17S1959.47 46.1 2014.78 46.1S2070.6 32.92 2126.09 32.92S2182.54 43 2237.39 43S2294.29 41.17 2348.7 41.17S2405.11 44.2 2460 44.2S2516.58 39.26 2571.3 39.26S2627.63 41.31 2682.61 41.31S2738.58 38.92 2793.91 38.92S2850.67 47.58 2905.22 47.58S2961.41 43.39 3016.52 43.39S3072.45 47.58 3127.83 47.58L3100 135 L-100 135 Z;M-100 35.71C-44.24 36.14 -43.06 41.42 11.3 41.42S67.35 41.59 122.61 41.59S179.07 46.77 233.91 46.77S289.78 41.71 345.22 41.71S401.9 44.15 456.52 44.15S513.37 38.03 567.83 38.03S624.28 45.43 679.13 45.43S735.37 44.09 790.43 44.09S846.58 38.57 901.74 38.57S957.41 48.36 1013.04 48.36S1069.83 47.7 1124.35 47.7S1180.24 37.67 1235.65 37.67S1291.83 42.08 1346.96 42.08S1403.37 44.19 1458.26 44.19S1514.55 45.86 1569.57 45.86S1625.88 32.05 1680.87 32.05S1736.59 42.51 1792.17 42.51S1848.11 43.83 1903.48 43.83S1960.09 38.42 2014.78 38.42S2071.01 43.85 2126.09 43.85S2182.96 37.39 2237.39 37.39S2293.19 35.86 2348.7 35.86S2405.38 41.57 2460 41.57S2516.08 39.07 2571.3 39.07S2627.08 44.14 2682.61 44.14S2738.7 44.39 2793.91 44.39S2850.9 44.38 2905.22 44.38S2961.79 48.61 3016.52 48.61S3073.47 37.86 3127.83 37.86L3100 135 L-100 135 Z"></animate>
  <animateTransform attributeName="transform" type="translate" dur="12.5s" begin="-6.25s" repeatCount="indefinite" values="0;10;0" calcMode="spline" keySplines="0.3 0 0.7 1;0.3 0 0.7 1"></animateTransform>
</path></g>
</svg>