<?xml version="1.0" encoding="utf-8"?>
<svg xml:space="preserve" viewBox="0 0 100 100" y="0" x="0" xmlns="http://www.w3.org/2000/svg" id="圖層_1" version="1.1" style="height: 100%; width: 100%; background: none; shape-rendering: auto;" width="200px" height="200px"><g class="ldl-scale" style="transform-origin: 50% 50%; transform: rotate(0deg) scale(1, 1);"><g class="ldl-ani"><g class="ldl-layer"><g class="ldl-ani" style="transform-origin: 50px 50px; opacity: 0; animation: 1.11111s linear -0.648148s infinite normal forwards running dim-fde7cabc-cd69-4364-8596-fed809c578cf;"><path d="M38.1 54.8l7.9 7.9" stroke-miterlimit="10" stroke-linecap="round" stroke-width="3.621" stroke="#e15b64" fill="none" style="stroke: rgb(204, 102, 119);"></path></g></g><g class="ldl-layer"><g class="ldl-ani" style="transform-origin: 50px 50px; opacity: 0; animation: 1.11111s linear -0.740741s infinite normal forwards running dim-fde7cabc-cd69-4364-8596-fed809c578cf;"><path d="M38.9 45.3l16 16" stroke="#f8b26a" fill="none" stroke-miterlimit="10" stroke-linecap="round" stroke-width="3.621" style="stroke: rgb(221, 204, 119);"></path></g></g><g class="ldl-layer"><g class="ldl-ani" style="transform-origin: 50px 50px; opacity: 0; animation: 1.11111s linear -0.833333s infinite normal forwards running dim-fde7cabc-cd69-4364-8596-fed809c578cf;"><path d="M45.9 40.8l13.7 13.7" stroke-miterlimit="10" stroke-linecap="round" stroke-width="3.621" stroke="#849b87" fill="none" style="stroke: rgb(68, 170, 153);"></path></g></g><g class="ldl-layer"><g class="ldl-ani" style="transform-origin: 50px 50px; opacity: 0; animation: 1.11111s linear -0.925926s infinite normal forwards running dim-fde7cabc-cd69-4364-8596-fed809c578cf;"><path d="M55.4 39.4l5.7 5.7" stroke-miterlimit="10" stroke-linecap="round" stroke-width="3.621" stroke="#77a4bd" fill="none" style="stroke: rgb(136, 204, 238);"></path></g></g><g class="ldl-layer"><g class="ldl-ani" style="transform-origin: 50px 50px; opacity: 0; animation: 1.11111s linear -1.01852s infinite normal forwards running dim-fde7cabc-cd69-4364-8596-fed809c578cf;"><path fill="#ccc" d="M91.8 34.5c-.7-.7-1.9-.7-2.6 0-6.2 6.2-15.4 3.4-25.2.5h-.1c-10.3-3.1-21-6.3-28.5 1.2S31 54.5 34 64.9v.1c2.8 9.7 5.4 18.8-.7 24.4-.7.7-.8 1.8-.1 2.6.4.4.8.6 1.3.6.4 0 .9-.2 1.2-.5 7.7-7.1 4.7-17.8 1.7-28V64c-2.8-9.8-5.5-19.1.5-25.2 6-6 15.2-3.2 24.9-.3h.1c5.4 1.6 11.2 3.4 16.6 3.4 4.5 0 8.7-1.2 12.3-4.7.7-.8.7-2 0-2.7z" style="fill: rgb(68, 170, 153);"></path></g></g><g class="ldl-layer"><g class="ldl-ani" style="transform-origin: 50px 50px; opacity: 0; animation: 1.11111s linear -1.11111s infinite normal forwards running dim-fde7cabc-cd69-4364-8596-fed809c578cf;"><path fill="#ccc" d="M65.3 36.3v-.1c-2.9-9.8-5.7-19 .5-25.2l.3-.3.1-.1c.7-.7.8-1.8.1-2.6-.7-.7-1.8-.8-2.6-.1l-.1.1c-.1.1-.3.2-.4.4-7.7 7.7-4.3 18.9-1.4 28.8v.1c2.9 9.7 5.7 18.9-.3 24.9s-15.3 3.4-25.2.5h-.1c-10.3-3-20.9-6-28 1.7-.7.7-.6 1.9.1 2.6.3.3.8.5 1.2.5.5 0 1-.2 1.3-.6 5.6-6.1 14.7-3.5 24.4-.7h.1c5.6 1.6 11.3 3.2 16.5 3.2 4.5 0 8.7-1.2 12.2-4.7 7.5-7.4 4.4-18.1 1.3-28.4z" style="fill: rgb(68, 170, 153);"></path></g></g><metadata xmlns:d="https://loading.io/stock/"><d:name>dna</d:name><d:tags>dna,genetic,chromosome,rna,cell,inheritance</d:tags><d:license>by</d:license><d:slug>t3p52z</d:slug></metadata></g></g><style id="dim-fde7cabc-cd69-4364-8596-fed809c578cf" data-anikit="">@keyframes dim-fde7cabc-cd69-4364-8596-fed809c578cf
{
  0% {
    animation-timing-function: cubic-bezier(0.9647,0.2413,-0.0705,0.7911);
    opacity: 0;
  }
  51% {
    animation-timing-function: cubic-bezier(0.9226,0.2631,-0.0308,0.7628);
    opacity: 0.9995;
  }
  100% {
    opacity: 0;
  }
}</style><!-- [ldio] generated by https://loading.io/ --></svg>