<?xml version="1.0" encoding="utf-8"?>
<svg xmlns="http://www.w3.org/2000/svg" xmlns:xlink="http://www.w3.org/1999/xlink" style="margin: auto; background: none; display: block; z-index: 1; position: relative; shape-rendering: auto;" width="3000" height="1142" preserveAspectRatio="xMidYMid" viewBox="0 0 3000 1142">
<g transform="translate(1500,571) scale(1,1) translate(-1500,-571)"><path d="M-100 670.69C-45.66 667.45 -46.65 667.8 3.23 667.8S56.1 676.56 106.45 676.56S159.93 685.34 209.68 685.34S262.11 687.07 312.9 687.07S364.55 665.59 416.13 665.59S468.45 687.11 519.35 687.11S572.26 683.69 622.58 683.69S676.94 681.18 725.81 681.18S778.11 675.99 829.03 675.99S882.99 686.94 932.26 686.94S985.62 675.4 1035.48 675.4S1088.71 667.73 1138.71 667.73S1192.43 687.74 1241.94 687.74S1295.75 683.77 1345.16 683.77S1399.6 670.29 1448.39 670.29S1502.38 663.6 1551.61 663.6S1603.55 663.23 1654.84 663.23S1707.17 680.53 1758.06 680.53S1809.95 663.12 1861.29 663.12S1913.97 684.65 1964.52 684.65S2018.35 683.18 2067.74 683.18S2122.15 668.8 2170.97 668.8S2224.73 680.4 2274.19 680.4S2327.51 680.44 2377.42 680.44S2430.06 670.17 2480.65 670.17S2534.43 681.87 2583.87 681.87S2637.65 683.49 2687.1 683.49S2738.95 688.35 2790.32 688.35S2842.53 675.46 2893.55 675.46S2947.05 679.31 2996.77 679.31S3051.19 670.14 3100 670.14S3153.53 670.83 3203.23 670.83L3100 1142 L-100 1142 Z" fill="#44aa99" stroke-width="0">
  <animate attributeName="d" dur="23.809523809523807s" repeatCount="indefinite" values="M-100 670.69C-45.66 667.45 -46.65 667.8 3.23 667.8S56.1 676.56 106.45 676.56S159.93 685.34 209.68 685.34S262.11 687.07 312.9 687.07S364.55 665.59 416.13 665.59S468.45 687.11 519.35 687.11S572.26 683.69 622.58 683.69S676.94 681.18 725.81 681.18S778.11 675.99 829.03 675.99S882.99 686.94 932.26 686.94S985.62 675.4 1035.48 675.4S1088.71 667.73 1138.71 667.73S1192.43 687.74 1241.94 687.74S1295.75 683.77 1345.16 683.77S1399.6 670.29 1448.39 670.29S1502.38 663.6 1551.61 663.6S1603.55 663.23 1654.84 663.23S1707.17 680.53 1758.06 680.53S1809.95 663.12 1861.29 663.12S1913.97 684.65 1964.52 684.65S2018.35 683.18 2067.74 683.18S2122.15 668.8 2170.97 668.8S2224.73 680.4 2274.19 680.4S2327.51 680.44 2377.42 680.44S2430.06 670.17 2480.65 670.17S2534.43 681.87 2583.87 681.87S2637.65 683.49 2687.1 683.49S2738.95 688.35 2790.32 688.35S2842.53 675.46 2893.55 675.46S2947.05 679.31 2996.77 679.31S3051.19 670.14 3100 670.14S3153.53 670.83 3203.23 670.83L3100 1142 L-100 1142 Z;M-100 677.93C-48.07 680.88 -46.18 688.72 3.23 688.72S57.46 675.29 106.45 675.29S158.35 685.43 209.68 685.43S263.33 674.64 312.9 674.64S366.45 669.78 416.13 669.78S468.73 672.9 519.35 672.9S573.53 665.17 622.58 665.17S676.52 681.52 725.81 681.52S778.08 682.81 829.03 682.81S882.82 674.28 932.26 674.28S986.35 681.34 1035.48 681.34S1089.07 675.39 1138.71 675.39S1192.87 670.85 1241.94 670.85S1294.19 685.59 1345.16 685.59S1396.9 674.11 1448.39 674.11S1501.15 690.68 1551.61 690.68S1603.48 687.41 1654.84 687.41S1707.61 673.14 1758.06 673.14S1811.91 688.42 1861.29 688.42S1915.76 667.89 1964.52 667.89S2016.66 676.57 2067.74 676.57S2120.68 669.54 2170.97 669.54S2223.27 672.42 2274.19 672.42S2326.19 676.11 2377.42 676.11S2430.42 669.22 2480.65 669.22S2532.44 687.14 2583.87 687.14S2637.27 690.69 2687.1 690.69S2740.19 665.67 2790.32 665.67S2844.78 673.46 2893.55 673.46S2945.69 677.09 2996.77 677.09S3051.02 663.74 3100 663.74S3152.37 683.34 3203.23 683.34L3100 1142 L-100 1142 Z;M-100 670.69C-45.66 667.45 -46.65 667.8 3.23 667.8S56.1 676.56 106.45 676.56S159.93 685.34 209.68 685.34S262.11 687.07 312.9 687.07S364.55 665.59 416.13 665.59S468.45 687.11 519.35 687.11S572.26 683.69 622.58 683.69S676.94 681.18 725.81 681.18S778.11 675.99 829.03 675.99S882.99 686.94 932.26 686.94S985.62 675.4 1035.48 675.4S1088.71 667.73 1138.71 667.73S1192.43 687.74 1241.94 687.74S1295.75 683.77 1345.16 683.77S1399.6 670.29 1448.39 670.29S1502.38 663.6 1551.61 663.6S1603.55 663.23 1654.84 663.23S1707.17 680.53 1758.06 680.53S1809.95 663.12 1861.29 663.12S1913.97 684.65 1964.52 684.65S2018.35 683.18 2067.74 683.18S2122.15 668.8 2170.97 668.8S2224.73 680.4 2274.19 680.4S2327.51 680.44 2377.42 680.44S2430.06 670.17 2480.65 670.17S2534.43 681.87 2583.87 681.87S2637.65 683.49 2687.1 683.49S2738.95 688.35 2790.32 688.35S2842.53 675.46 2893.55 675.46S2947.05 679.31 2996.77 679.31S3051.19 670.14 3100 670.14S3153.53 670.83 3203.23 670.83L3100 1142 L-100 1142 Z"></animate>
  <animateTransform attributeName="transform" type="translate" dur="23.809523809523807s" begin="0s" repeatCount="indefinite" values="0;10;0" calcMode="spline" keySplines="0.3 0 0.7 1;0.3 0 0.7 1"></animateTransform>
</path><path d="M-100 695.37C-46.21 713.29 -46.33 707.46 5.96 707.46S59.52 715.3 111.92 715.3S167.27 717.16 217.88 717.16S273.66 713.58 323.84 713.58S379.23 698.21 429.8 698.21S483.65 691.22 535.76 691.22S589.51 722.17 641.72 722.17S695.79 705.98 747.68 705.98S800.89 697.72 853.64 697.72S908.71 718.36 959.6 718.36S1014.87 699.8 1065.56 699.8S1119.51 700.41 1171.52 700.41S1226.49 701.51 1277.48 701.51S1331.78 707.65 1383.44 707.65S1437.22 691.69 1489.4 691.69S1544.84 715.2 1595.36 715.2S1648.83 717.53 1701.32 717.53S1754.86 712.64 1807.28 712.64S1860.4 714.09 1913.25 714.09S1966.52 703.11 2019.21 703.11S2074 705.35 2125.17 705.35S2178.83 724.37 2231.13 724.37S2286.8 724.82 2337.09 724.82S2390.3 707.95 2443.05 707.95S2498.41 714.39 2549.01 714.39S2603.07 711.23 2654.97 711.23S2710.31 702.7 2760.93 702.7S2814.09 710.14 2866.89 710.14S2920.86 703.26 2972.85 703.26S3028.3 714.29 3078.81 714.29S3133.39 712.59 3184.77 712.59L3100 1142 L-100 1142 Z" fill="#0fa09c" stroke-width="0">
  <animate attributeName="d" dur="21.428571428571427s" repeatCount="indefinite" values="M-100 695.37C-46.21 713.29 -46.33 707.46 5.96 707.46S59.52 715.3 111.92 715.3S167.27 717.16 217.88 717.16S273.66 713.58 323.84 713.58S379.23 698.21 429.8 698.21S483.65 691.22 535.76 691.22S589.51 722.17 641.72 722.17S695.79 705.98 747.68 705.98S800.89 697.72 853.64 697.72S908.71 718.36 959.6 718.36S1014.87 699.8 1065.56 699.8S1119.51 700.41 1171.52 700.41S1226.49 701.51 1277.48 701.51S1331.78 707.65 1383.44 707.65S1437.22 691.69 1489.4 691.69S1544.84 715.2 1595.36 715.2S1648.83 717.53 1701.32 717.53S1754.86 712.64 1807.28 712.64S1860.4 714.09 1913.25 714.09S1966.52 703.11 2019.21 703.11S2074 705.35 2125.17 705.35S2178.83 724.37 2231.13 724.37S2286.8 724.82 2337.09 724.82S2390.3 707.95 2443.05 707.95S2498.41 714.39 2549.01 714.39S2603.07 711.23 2654.97 711.23S2710.31 702.7 2760.93 702.7S2814.09 710.14 2866.89 710.14S2920.86 703.26 2972.85 703.26S3028.3 714.29 3078.81 714.29S3133.39 712.59 3184.77 712.59L3100 1142 L-100 1142 Z;M-100 718.98C-45.61 697.42 -45.62 704.73 5.96 704.73S61.56 706.94 111.92 706.94S167.47 721.64 217.88 721.64S272.39 718.75 323.84 718.75S376.92 710.14 429.8 710.14S484.16 695.47 535.76 695.47S591.17 715.04 641.72 715.04S695.72 705.1 747.68 705.1S801.67 707.2 853.64 707.2S908.18 716.48 959.6 716.48S1015.06 701.31 1065.56 701.31S1119.31 705.4 1171.52 705.4S1226.82 705.31 1277.48 705.31S1331.62 701.3 1383.44 701.3S1437.84 714.07 1489.4 714.07S1543.85 713.31 1595.36 713.31S1650.34 719.77 1701.32 719.77S1757.03 706.81 1807.28 706.81S1860.47 698.09 1913.25 698.09S1967.93 716.25 2019.21 716.25S2072.49 711.58 2125.17 711.58S2179.82 696.39 2231.13 696.39S2285.2 724.73 2337.09 724.73S2391.84 693.77 2443.05 693.77S2497.81 724.25 2549.01 724.25S2603.61 723.43 2654.97 723.43S2709.61 716.01 2760.93 716.01S2815.2 705.14 2866.89 705.14S2922.33 695.85 2972.85 695.85S3026.22 705.48 3078.81 705.48S3134.06 697.71 3184.77 697.71L3100 1142 L-100 1142 Z;M-100 695.37C-46.21 713.29 -46.33 707.46 5.96 707.46S59.52 715.3 111.92 715.3S167.27 717.16 217.88 717.16S273.66 713.58 323.84 713.58S379.23 698.21 429.8 698.21S483.65 691.22 535.76 691.22S589.51 722.17 641.72 722.17S695.79 705.98 747.68 705.98S800.89 697.72 853.64 697.72S908.71 718.36 959.6 718.36S1014.87 699.8 1065.56 699.8S1119.51 700.41 1171.52 700.41S1226.49 701.51 1277.48 701.51S1331.78 707.65 1383.44 707.65S1437.22 691.69 1489.4 691.69S1544.84 715.2 1595.36 715.2S1648.83 717.53 1701.32 717.53S1754.86 712.64 1807.28 712.64S1860.4 714.09 1913.25 714.09S1966.52 703.11 2019.21 703.11S2074 705.35 2125.17 705.35S2178.83 724.37 2231.13 724.37S2286.8 724.82 2337.09 724.82S2390.3 707.95 2443.05 707.95S2498.41 714.39 2549.01 714.39S2603.07 711.23 2654.97 711.23S2710.31 702.7 2760.93 702.7S2814.09 710.14 2866.89 710.14S2920.86 703.26 2972.85 703.26S3028.3 714.29 3078.81 714.29S3133.39 712.59 3184.77 712.59L3100 1142 L-100 1142 Z"></animate>
  <animateTransform attributeName="transform" type="translate" dur="21.428571428571427s" begin="-2.142857142857143s" repeatCount="indefinite" values="0;10;0" calcMode="spline" keySplines="0.3 0 0.7 1;0.3 0 0.7 1"></animateTransform>
</path><path d="M-100 734.54C-44.83 735.31 -44.81 740.31 8.84 740.31S65.32 722.26 117.69 722.26S173.26 733.05 226.53 733.05S282.98 733.72 335.37 733.72S391.78 754.95 444.22 754.95S500.29 742.26 553.06 742.26S609.65 734.56 661.9 734.56S717.45 722.64 770.75 722.64S825.43 737.88 879.59 737.88S934.1 734.62 988.44 734.62S1044.38 725.7 1097.28 725.7S1151.76 753.06 1206.12 753.06S1262.28 750.5 1314.97 750.5S1371.39 740.97 1423.81 740.97S1478.39 735.71 1532.65 735.71S1587.77 725.52 1641.5 725.52S1696 745.67 1750.34 745.67S1805.91 726.25 1859.18 726.25S1915.95 734.76 1968.03 734.76S2022.45 748.34 2076.87 748.34S2133.15 736.89 2185.71 736.89S2240.74 737.3 2294.56 737.3S2349.36 734.16 2403.4 734.16S2458.51 734.44 2512.24 734.44S2566.93 733.35 2621.09 733.35S2676.75 721.43 2729.93 721.43S2787.17 736.6 2838.78 736.6S2893.23 727.3 2947.62 727.3S3003.91 757.6 3056.46 757.6S3113.12 733.24 3165.31 733.24L3100 1142 L-100 1142 Z" fill="#00959f" stroke-width="0">
  <animate attributeName="d" dur="19.047619047619047s" repeatCount="indefinite" values="M-100 734.54C-44.83 735.31 -44.81 740.31 8.84 740.31S65.32 722.26 117.69 722.26S173.26 733.05 226.53 733.05S282.98 733.72 335.37 733.72S391.78 754.95 444.22 754.95S500.29 742.26 553.06 742.26S609.65 734.56 661.9 734.56S717.45 722.64 770.75 722.64S825.43 737.88 879.59 737.88S934.1 734.62 988.44 734.62S1044.38 725.7 1097.28 725.7S1151.76 753.06 1206.12 753.06S1262.28 750.5 1314.97 750.5S1371.39 740.97 1423.81 740.97S1478.39 735.71 1532.65 735.71S1587.77 725.52 1641.5 725.52S1696 745.67 1750.34 745.67S1805.91 726.25 1859.18 726.25S1915.95 734.76 1968.03 734.76S2022.45 748.34 2076.87 748.34S2133.15 736.89 2185.71 736.89S2240.74 737.3 2294.56 737.3S2349.36 734.16 2403.4 734.16S2458.51 734.44 2512.24 734.44S2566.93 733.35 2621.09 733.35S2676.75 721.43 2729.93 721.43S2787.17 736.6 2838.78 736.6S2893.23 727.3 2947.62 727.3S3003.91 757.6 3056.46 757.6S3113.12 733.24 3165.31 733.24L3100 1142 L-100 1142 Z;M-100 736.72C-44.67 725.95 -44.2 758.73 8.84 758.73S64.38 724.44 117.69 724.44S173.42 734.45 226.53 734.45S283.26 732.91 335.37 732.91S391.97 736.97 444.22 736.97S500.11 743.59 553.06 743.59S608.76 733.97 661.9 733.97S718.26 723.11 770.75 723.11S827.92 758.31 879.59 758.31S934.89 721.76 988.44 721.76S1043.97 745.49 1097.28 745.49S1154.48 747.33 1206.12 747.33S1262.92 745.46 1314.97 745.46S1370.14 737.17 1423.81 737.17S1479.35 748.59 1532.65 748.59S1587.49 735.84 1641.5 735.84S1698.18 747.59 1750.34 747.59S1805.73 721.04 1859.18 721.04S1913.84 747.33 1968.03 747.33S2022.6 743.92 2076.87 743.92S2133.8 756.81 2185.71 756.81S2242.39 738.65 2294.56 738.65S2349.21 740.65 2403.4 740.65S2459.21 732.99 2512.24 732.99S2566.99 730.42 2621.09 730.42S2677.63 731.21 2729.93 731.21S2785.39 747.97 2838.78 747.97S2895.14 739.53 2947.62 739.53S3002.48 734.16 3056.46 734.16S3112.44 728.24 3165.31 728.24L3100 1142 L-100 1142 Z;M-100 734.54C-44.83 735.31 -44.81 740.31 8.84 740.31S65.32 722.26 117.69 722.26S173.26 733.05 226.53 733.05S282.98 733.72 335.37 733.72S391.78 754.95 444.22 754.95S500.29 742.26 553.06 742.26S609.65 734.56 661.9 734.56S717.45 722.64 770.75 722.64S825.43 737.88 879.59 737.88S934.1 734.62 988.44 734.62S1044.38 725.7 1097.28 725.7S1151.76 753.06 1206.12 753.06S1262.28 750.5 1314.97 750.5S1371.39 740.97 1423.81 740.97S1478.39 735.71 1532.65 735.71S1587.77 725.52 1641.5 725.52S1696 745.67 1750.34 745.67S1805.91 726.25 1859.18 726.25S1915.95 734.76 1968.03 734.76S2022.45 748.34 2076.87 748.34S2133.15 736.89 2185.71 736.89S2240.74 737.3 2294.56 737.3S2349.36 734.16 2403.4 734.16S2458.51 734.44 2512.24 734.44S2566.93 733.35 2621.09 733.35S2676.75 721.43 2729.93 721.43S2787.17 736.6 2838.78 736.6S2893.23 727.3 2947.62 727.3S3003.91 757.6 3056.46 757.6S3113.12 733.24 3165.31 733.24L3100 1142 L-100 1142 Z"></animate>
  <animateTransform attributeName="transform" type="translate" dur="19.047619047619047s" begin="-3.8095238095238093s" repeatCount="indefinite" values="0;10;0" calcMode="spline" keySplines="0.3 0 0.7 1;0.3 0 0.7 1"></animateTransform>
</path><path d="M-100 765.6C-43.18 758.83 -42.91 777.11 11.89 777.11S68.37 759.78 123.78 759.78S181.23 787.9 235.66 787.9S294.2 775.36 347.55 775.36S405.27 791.84 459.44 791.84S518.22 754.79 571.33 754.79S627.61 759.72 683.22 759.72S741.32 752.24 795.1 752.24S852.72 776.18 906.99 776.18S963.21 759.61 1018.88 759.61S1076.84 772.48 1130.77 772.48S1188.59 749.19 1242.66 749.19S1301.09 773.52 1354.55 773.52S1411.08 759.94 1466.43 759.94S1523.18 778.19 1578.32 778.19S1635.8 773.71 1690.21 773.71S1746.92 783.89 1802.1 783.89S1859.6 755.83 1913.99 755.83S1971.99 779.97 2025.87 779.97S2082.85 762.28 2137.76 762.28S2194.36 780.36 2249.65 780.36S2307.64 757.68 2361.54 757.68S2418.07 781.92 2473.43 781.92S2530.03 762.22 2585.31 762.22S2642.65 770.33 2697.2 770.33S2754.09 773.2 2809.09 773.2S2865.99 767.79 2920.98 767.79S2978.14 750.09 3032.87 750.09S3091.18 790.76 3144.76 790.76L3100 1142 L-100 1142 Z" fill="#008aa4" stroke-width="0">
  <animate attributeName="d" dur="16.666666666666664s" repeatCount="indefinite" values="M-100 765.6C-43.18 758.83 -42.91 777.11 11.89 777.11S68.37 759.78 123.78 759.78S181.23 787.9 235.66 787.9S294.2 775.36 347.55 775.36S405.27 791.84 459.44 791.84S518.22 754.79 571.33 754.79S627.61 759.72 683.22 759.72S741.32 752.24 795.1 752.24S852.72 776.18 906.99 776.18S963.21 759.61 1018.88 759.61S1076.84 772.48 1130.77 772.48S1188.59 749.19 1242.66 749.19S1301.09 773.52 1354.55 773.52S1411.08 759.94 1466.43 759.94S1523.18 778.19 1578.32 778.19S1635.8 773.71 1690.21 773.71S1746.92 783.89 1802.1 783.89S1859.6 755.83 1913.99 755.83S1971.99 779.97 2025.87 779.97S2082.85 762.28 2137.76 762.28S2194.36 780.36 2249.65 780.36S2307.64 757.68 2361.54 757.68S2418.07 781.92 2473.43 781.92S2530.03 762.22 2585.31 762.22S2642.65 770.33 2697.2 770.33S2754.09 773.2 2809.09 773.2S2865.99 767.79 2920.98 767.79S2978.14 750.09 3032.87 750.09S3091.18 790.76 3144.76 790.76L3100 1142 L-100 1142 Z;M-100 769.52C-42.36 768.2 -41.64 783.1 11.89 783.1S69.06 751.34 123.78 751.34S182.14 789.09 235.66 789.09S293.16 764.34 347.55 764.34S405.18 781.14 459.44 781.14S517.98 790.44 571.33 790.44S629.51 779.22 683.22 779.22S740.39 765.93 795.1 765.93S853.67 789.2 906.99 789.2S963.88 774.2 1018.88 774.2S1077.58 780.36 1130.77 780.36S1187.56 761.56 1242.66 761.56S1299.14 784.45 1354.55 784.45S1412.15 767.57 1466.43 767.57S1522.95 789.56 1578.32 789.56S1636.56 760.06 1690.21 760.06S1746.88 791.53 1802.1 791.53S1858.72 776.55 1913.99 776.55S1969.95 787.83 2025.87 787.83S2084.64 769.66 2137.76 769.66S2195.49 788.02 2249.65 788.02S2308.12 755.5 2361.54 755.5S2420.21 789.18 2473.43 789.18S2530.57 765.79 2585.31 765.79S2642.35 781.82 2697.2 781.82S2754.11 759.05 2809.09 759.05S2865.73 765.94 2920.98 765.94S2977.62 785.3 3032.87 785.3S3090.24 772.56 3144.76 772.56L3100 1142 L-100 1142 Z;M-100 765.6C-43.18 758.83 -42.91 777.11 11.89 777.11S68.37 759.78 123.78 759.78S181.23 787.9 235.66 787.9S294.2 775.36 347.55 775.36S405.27 791.84 459.44 791.84S518.22 754.79 571.33 754.79S627.61 759.72 683.22 759.72S741.32 752.24 795.1 752.24S852.72 776.18 906.99 776.18S963.21 759.61 1018.88 759.61S1076.84 772.48 1130.77 772.48S1188.59 749.19 1242.66 749.19S1301.09 773.52 1354.55 773.52S1411.08 759.94 1466.43 759.94S1523.18 778.19 1578.32 778.19S1635.8 773.71 1690.21 773.71S1746.92 783.89 1802.1 783.89S1859.6 755.83 1913.99 755.83S1971.99 779.97 2025.87 779.97S2082.85 762.28 2137.76 762.28S2194.36 780.36 2249.65 780.36S2307.64 757.68 2361.54 757.68S2418.07 781.92 2473.43 781.92S2530.03 762.22 2585.31 762.22S2642.65 770.33 2697.2 770.33S2754.09 773.2 2809.09 773.2S2865.99 767.79 2920.98 767.79S2978.14 750.09 3032.87 750.09S3091.18 790.76 3144.76 790.76L3100 1142 L-100 1142 Z"></animate>
  <animateTransform attributeName="transform" type="translate" dur="16.666666666666664s" begin="-4.999999999999999s" repeatCount="indefinite" values="0;10;0" calcMode="spline" keySplines="0.3 0 0.7 1;0.3 0 0.7 1"></animateTransform>
</path><path d="M-100 781.01C-40.47 784.17 -40.33 817.9 15.11 817.9S73.48 783.07 130.22 783.07S188.32 800.6 245.32 800.6S304.06 824.94 360.43 824.94S418.21 807.45 475.54 807.45S534.08 803.77 590.65 803.77S650.42 799.91 705.76 799.91S765.83 779.85 820.86 779.85S879.49 797.06 935.97 797.06S994.12 782.1 1051.08 782.1S1110.45 821.95 1166.19 821.95S1223.87 794.89 1281.29 794.89S1340.54 824.04 1396.4 824.04S1455.09 803.09 1511.51 803.09S1571.37 823.72 1626.62 823.72S1685.08 788.98 1741.73 788.98S1802.13 801.68 1856.83 801.68S1916.68 791.06 1971.94 791.06S2030.18 826.99 2087.05 826.99S2144.8 795.03 2202.16 795.03S2259.77 803.71 2317.27 803.71S2377.06 795.23 2432.37 795.23S2491.24 827.49 2547.48 827.49S2607.39 804.85 2662.59 804.85S2721.35 778.5 2777.7 778.5S2837.04 795.12 2892.81 795.12S2950.83 808.58 3007.91 808.58S3065.62 801.25 3123.02 801.25L3100 1142 L-100 1142 Z" fill="#007ea8" stroke-width="0">
  <animate attributeName="d" dur="14.285714285714285s" repeatCount="indefinite" values="M-100 781.01C-40.47 784.17 -40.33 817.9 15.11 817.9S73.48 783.07 130.22 783.07S188.32 800.6 245.32 800.6S304.06 824.94 360.43 824.94S418.21 807.45 475.54 807.45S534.08 803.77 590.65 803.77S650.42 799.91 705.76 799.91S765.83 779.85 820.86 779.85S879.49 797.06 935.97 797.06S994.12 782.1 1051.08 782.1S1110.45 821.95 1166.19 821.95S1223.87 794.89 1281.29 794.89S1340.54 824.04 1396.4 824.04S1455.09 803.09 1511.51 803.09S1571.37 823.72 1626.62 823.72S1685.08 788.98 1741.73 788.98S1802.13 801.68 1856.83 801.68S1916.68 791.06 1971.94 791.06S2030.18 826.99 2087.05 826.99S2144.8 795.03 2202.16 795.03S2259.77 803.71 2317.27 803.71S2377.06 795.23 2432.37 795.23S2491.24 827.49 2547.48 827.49S2607.39 804.85 2662.59 804.85S2721.35 778.5 2777.7 778.5S2837.04 795.12 2892.81 795.12S2950.83 808.58 3007.91 808.58S3065.62 801.25 3123.02 801.25L3100 1142 L-100 1142 Z;M-100 794.18C-41.82 802.23 -41.9 816.93 15.11 816.93S74.52 777.09 130.22 777.09S190.02 809.14 245.32 809.14S305.01 801.38 360.43 801.38S419.75 822.08 475.54 822.08S534.38 800.22 590.65 800.22S650.6 791.43 705.76 791.43S764.36 795.93 820.86 795.93S880.37 803.1 935.97 803.1S995.12 816.23 1051.08 816.23S1111.08 812.49 1166.19 812.49S1225.07 819.6 1281.29 819.6S1340.27 810.25 1396.4 810.25S1455.5 784.52 1511.51 784.52S1570.01 814.83 1626.62 814.83S1685.83 787.91 1741.73 787.91S1801.94 807.09 1856.83 807.09S1917.12 780.2 1971.94 780.2S2029.64 805.7 2087.05 805.7S2145.19 794.48 2202.16 794.48S2262.21 799.64 2317.27 799.64S2377.24 809.37 2432.37 809.37S2492.65 822.15 2547.48 822.15S2607.47 803.51 2662.59 803.51S2720.58 804.99 2777.7 804.99S2836.01 800.82 2892.81 800.82S2952.55 817.5 3007.91 817.5S3066.28 780.08 3123.02 780.08L3100 1142 L-100 1142 Z;M-100 781.01C-40.47 784.17 -40.33 817.9 15.11 817.9S73.48 783.07 130.22 783.07S188.32 800.6 245.32 800.6S304.06 824.94 360.43 824.94S418.21 807.45 475.54 807.45S534.08 803.77 590.65 803.77S650.42 799.91 705.76 799.91S765.83 779.85 820.86 779.85S879.49 797.06 935.97 797.06S994.12 782.1 1051.08 782.1S1110.45 821.95 1166.19 821.95S1223.87 794.89 1281.29 794.89S1340.54 824.04 1396.4 824.04S1455.09 803.09 1511.51 803.09S1571.37 823.72 1626.62 823.72S1685.08 788.98 1741.73 788.98S1802.13 801.68 1856.83 801.68S1916.68 791.06 1971.94 791.06S2030.18 826.99 2087.05 826.99S2144.8 795.03 2202.16 795.03S2259.77 803.71 2317.27 803.71S2377.06 795.23 2432.37 795.23S2491.24 827.49 2547.48 827.49S2607.39 804.85 2662.59 804.85S2721.35 778.5 2777.7 778.5S2837.04 795.12 2892.81 795.12S2950.83 808.58 3007.91 808.58S3065.62 801.25 3123.02 801.25L3100 1142 L-100 1142 Z"></animate>
  <animateTransform attributeName="transform" type="translate" dur="14.285714285714285s" begin="-5.7142857142857135s" repeatCount="indefinite" values="0;10;0" calcMode="spline" keySplines="0.3 0 0.7 1;0.3 0 0.7 1"></animateTransform>
</path><path d="M-100 809.67C-38.24 819.02 -38.36 841.54 18.52 841.54S78.3 826.38 137.04 826.38S196.76 857.13 255.56 857.13S316.43 836.12 374.07 836.12S434.51 847.65 492.59 847.65S552.57 825.46 611.11 825.46S672.89 842.89 729.63 842.89S791.53 811.1 848.15 811.1S907.5 853.2 966.67 853.2S1027.19 828.01 1085.19 828.01S1144.84 856.85 1203.7 856.85S1263.87 819.41 1322.22 819.41S1383.68 829.02 1440.74 829.02S1501.8 855.49 1559.26 855.49S1620.77 856.94 1677.78 856.94S1739.13 814.55 1796.3 814.55S1856.06 844.23 1914.81 844.23S1976.58 848.25 2033.33 848.25S2093.93 812.79 2151.85 812.79S2212.98 831.64 2270.37 831.64S2331.95 858.5 2388.89 858.5S2449.66 830.16 2507.41 830.16S2568.46 855.32 2625.93 855.32S2687.39 830.85 2744.44 830.85S2805.19 853.32 2862.96 853.32S2923.23 806.71 2981.48 806.71S3042.24 835.46 3100 835.46S3159.97 823.51 3218.52 823.51L3100 1142 L-100 1142 Z" fill="#0071aa" stroke-width="0">
  <animate attributeName="d" dur="11.904761904761903s" repeatCount="indefinite" values="M-100 809.67C-38.24 819.02 -38.36 841.54 18.52 841.54S78.3 826.38 137.04 826.38S196.76 857.13 255.56 857.13S316.43 836.12 374.07 836.12S434.51 847.65 492.59 847.65S552.57 825.46 611.11 825.46S672.89 842.89 729.63 842.89S791.53 811.1 848.15 811.1S907.5 853.2 966.67 853.2S1027.19 828.01 1085.19 828.01S1144.84 856.85 1203.7 856.85S1263.87 819.41 1322.22 819.41S1383.68 829.02 1440.74 829.02S1501.8 855.49 1559.26 855.49S1620.77 856.94 1677.78 856.94S1739.13 814.55 1796.3 814.55S1856.06 844.23 1914.81 844.23S1976.58 848.25 2033.33 848.25S2093.93 812.79 2151.85 812.79S2212.98 831.64 2270.37 831.64S2331.95 858.5 2388.89 858.5S2449.66 830.16 2507.41 830.16S2568.46 855.32 2625.93 855.32S2687.39 830.85 2744.44 830.85S2805.19 853.32 2862.96 853.32S2923.23 806.71 2981.48 806.71S3042.24 835.46 3100 835.46S3159.97 823.51 3218.52 823.51L3100 1142 L-100 1142 Z;M-100 814.67C-39.13 829.29 -39.03 845.69 18.52 845.69S79.31 817.82 137.04 817.82S198.69 805.44 255.56 805.44S316.01 821.93 374.07 821.93S433.81 839.07 492.59 839.07S552.98 830.55 611.11 830.55S670.59 857.17 729.63 857.17S789.27 832.89 848.15 832.89S908.74 845.13 966.67 845.13S1026.09 807.51 1085.19 807.51S1146.92 839.26 1203.7 839.26S1264.91 821.89 1322.22 821.89S1383.91 857.91 1440.74 857.91S1500.65 809.47 1559.26 809.47S1621.37 836.91 1677.78 836.91S1739.73 845.6 1796.3 845.6S1855.64 834.79 1914.81 834.79S1975.23 813.03 2033.33 813.03S2094.08 852.27 2151.85 852.27S2211.66 815.46 2270.37 815.46S2330.09 852.94 2388.89 852.94S2449.55 806.74 2507.41 806.74S2568.76 825.55 2625.93 825.55S2687.04 838.25 2744.44 838.25S2806.09 861.49 2862.96 861.49S2923.74 822.13 2981.48 822.13S3042.22 853.38 3100 853.38S3161.09 813 3218.52 813L3100 1142 L-100 1142 Z;M-100 809.67C-38.24 819.02 -38.36 841.54 18.52 841.54S78.3 826.38 137.04 826.38S196.76 857.13 255.56 857.13S316.43 836.12 374.07 836.12S434.51 847.65 492.59 847.65S552.57 825.46 611.11 825.46S672.89 842.89 729.63 842.89S791.53 811.1 848.15 811.1S907.5 853.2 966.67 853.2S1027.19 828.01 1085.19 828.01S1144.84 856.85 1203.7 856.85S1263.87 819.41 1322.22 819.41S1383.68 829.02 1440.74 829.02S1501.8 855.49 1559.26 855.49S1620.77 856.94 1677.78 856.94S1739.13 814.55 1796.3 814.55S1856.06 844.23 1914.81 844.23S1976.58 848.25 2033.33 848.25S2093.93 812.79 2151.85 812.79S2212.98 831.64 2270.37 831.64S2331.95 858.5 2388.89 858.5S2449.66 830.16 2507.41 830.16S2568.46 855.32 2625.93 855.32S2687.39 830.85 2744.44 830.85S2805.19 853.32 2862.96 853.32S2923.23 806.71 2981.48 806.71S3042.24 835.46 3100 835.46S3159.97 823.51 3218.52 823.51L3100 1142 L-100 1142 Z"></animate>
  <animateTransform attributeName="transform" type="translate" dur="11.904761904761903s" begin="-5.952380952380952s" repeatCount="indefinite" values="0;10;0" calcMode="spline" keySplines="0.3 0 0.7 1;0.3 0 0.7 1"></animateTransform>
</path><path d="M-100 844.32C-38.73 859.11 -37.39 835.06 22.14 835.06S84.62 840.93 144.27 840.93S206.93 893.59 266.41 893.59S330.16 837.89 388.55 837.89S452.03 894.65 510.69 894.65S572.65 894.72 632.82 894.72S694.58 880.25 754.96 880.25S818.03 851.5 877.1 851.5S940.63 895.04 999.24 895.04S1060.95 860.23 1121.37 860.23S1183.38 888.38 1243.51 888.38S1306.69 851.05 1365.65 851.05S1427.06 875.09 1487.79 875.09S1551.12 836.58 1609.92 836.58S1671.76 892.89 1732.06 892.89S1795.39 840.68 1854.2 840.68S1917.23 846.18 1976.34 846.18S2038.67 852.2 2098.47 852.2S2160.91 894.46 2220.61 894.46S2284.11 861.72 2342.75 861.72S2406.63 895.25 2464.89 895.25S2528.29 850.35 2587.02 850.35S2650.61 877.37 2709.16 877.37S2771.1 852.18 2831.3 852.18S2895.06 887.22 2953.44 887.22S3015.85 835.37 3075.57 835.37S3136.93 872.31 3197.71 872.31L3100 1142 L-100 1142 Z" fill="#0064ab" stroke-width="0">
  <animate attributeName="d" dur="9.523809523809524s" repeatCount="indefinite" values="M-100 844.32C-38.73 859.11 -37.39 835.06 22.14 835.06S84.62 840.93 144.27 840.93S206.93 893.59 266.41 893.59S330.16 837.89 388.55 837.89S452.03 894.65 510.69 894.65S572.65 894.72 632.82 894.72S694.58 880.25 754.96 880.25S818.03 851.5 877.1 851.5S940.63 895.04 999.24 895.04S1060.95 860.23 1121.37 860.23S1183.38 888.38 1243.51 888.38S1306.69 851.05 1365.65 851.05S1427.06 875.09 1487.79 875.09S1551.12 836.58 1609.92 836.58S1671.76 892.89 1732.06 892.89S1795.39 840.68 1854.2 840.68S1917.23 846.18 1976.34 846.18S2038.67 852.2 2098.47 852.2S2160.91 894.46 2220.61 894.46S2284.11 861.72 2342.75 861.72S2406.63 895.25 2464.89 895.25S2528.29 850.35 2587.02 850.35S2650.61 877.37 2709.16 877.37S2771.1 852.18 2831.3 852.18S2895.06 887.22 2953.44 887.22S3015.85 835.37 3075.57 835.37S3136.93 872.31 3197.71 872.31L3100 1142 L-100 1142 Z;M-100 838.86C-38.3 848.04 -36.72 878.38 22.14 878.38S85.03 839.82 144.27 839.82S205.66 884.26 266.41 884.26S327.81 860.95 388.55 860.95S450.97 840.69 510.69 840.69S572.23 856.16 632.82 856.16S695.08 890.65 754.96 890.65S818.2 860.46 877.1 860.46S939.67 869.52 999.24 869.52S1061.75 841.63 1121.37 841.63S1184.11 871.42 1243.51 871.42S1306.84 853.49 1365.65 853.49S1428.21 887.92 1487.79 887.92S1549.69 850.66 1609.92 850.66S1673.21 869.45 1732.06 869.45S1793.14 844.65 1854.2 844.65S1916.68 868.42 1976.34 868.42S2037.58 840.41 2098.47 840.41S2160.36 873.98 2220.61 873.98S2284.24 855.02 2342.75 855.02S2406.2 877.89 2464.89 877.89S2527.37 843.79 2587.02 843.79S2650.43 872.71 2709.16 872.71S2772.58 846.14 2831.3 846.14S2892.63 878.38 2953.44 878.38S3014.96 844.69 3075.57 844.69S3137.78 874.34 3197.71 874.34L3100 1142 L-100 1142 Z;M-100 844.32C-38.73 859.11 -37.39 835.06 22.14 835.06S84.62 840.93 144.27 840.93S206.93 893.59 266.41 893.59S330.16 837.89 388.55 837.89S452.03 894.65 510.69 894.65S572.65 894.72 632.82 894.72S694.58 880.25 754.96 880.25S818.03 851.5 877.1 851.5S940.63 895.04 999.24 895.04S1060.95 860.23 1121.37 860.23S1183.38 888.38 1243.51 888.38S1306.69 851.05 1365.65 851.05S1427.06 875.09 1487.79 875.09S1551.12 836.58 1609.92 836.58S1671.76 892.89 1732.06 892.89S1795.39 840.68 1854.2 840.68S1917.23 846.18 1976.34 846.18S2038.67 852.2 2098.47 852.2S2160.91 894.46 2220.61 894.46S2284.11 861.72 2342.75 861.72S2406.63 895.25 2464.89 895.25S2528.29 850.35 2587.02 850.35S2650.61 877.37 2709.16 877.37S2771.1 852.18 2831.3 852.18S2895.06 887.22 2953.44 887.22S3015.85 835.37 3075.57 835.37S3136.93 872.31 3197.71 872.31L3100 1142 L-100 1142 Z"></animate>
  <animateTransform attributeName="transform" type="translate" dur="9.523809523809524s" begin="-5.7142857142857135s" repeatCount="indefinite" values="0;10;0" calcMode="spline" keySplines="0.3 0 0.7 1;0.3 0 0.7 1"></animateTransform>
</path><path d="M-100 884.4C-36.46 872.05 -34.46 904.99 25.98 904.99S89.59 870.57 151.97 870.57S217.78 920.62 277.95 920.62S341.16 926.82 403.94 926.82S467.81 907.24 529.92 907.24S595.77 865.57 655.91 865.57S720.01 922.9 781.89 922.9S844.89 865.23 907.87 865.23S972.17 887.89 1033.86 887.89S1097.57 863.7 1159.84 863.7S1225.47 907.9 1285.83 907.9S1351.24 876.92 1411.81 876.92S1475.54 862.93 1537.8 862.93S1601.61 884.29 1663.78 884.29S1727.12 918.45 1789.76 918.45S1854.24 870.22 1915.75 870.22S1981.32 916.19 2041.73 916.19S2107.26 868 2167.72 868S2232.6 918.83 2293.7 918.83S2356.86 878.4 2419.69 878.4S2485.11 916.54 2545.67 916.54S2609.85 883.79 2671.65 883.79S2737.01 926.69 2797.64 926.69S2863.2 864.02 2923.62 864.02S2988.63 903.18 3049.61 903.18S3113.41 915.99 3175.59 915.99L3100 1142 L-100 1142 Z" fill="#0056a8" stroke-width="0">
  <animate attributeName="d" dur="7.142857142857142s" repeatCount="indefinite" values="M-100 884.4C-36.46 872.05 -34.46 904.99 25.98 904.99S89.59 870.57 151.97 870.57S217.78 920.62 277.95 920.62S341.16 926.82 403.94 926.82S467.81 907.24 529.92 907.24S595.77 865.57 655.91 865.57S720.01 922.9 781.89 922.9S844.89 865.23 907.87 865.23S972.17 887.89 1033.86 887.89S1097.57 863.7 1159.84 863.7S1225.47 907.9 1285.83 907.9S1351.24 876.92 1411.81 876.92S1475.54 862.93 1537.8 862.93S1601.61 884.29 1663.78 884.29S1727.12 918.45 1789.76 918.45S1854.24 870.22 1915.75 870.22S1981.32 916.19 2041.73 916.19S2107.26 868 2167.72 868S2232.6 918.83 2293.7 918.83S2356.86 878.4 2419.69 878.4S2485.11 916.54 2545.67 916.54S2609.85 883.79 2671.65 883.79S2737.01 926.69 2797.64 926.69S2863.2 864.02 2923.62 864.02S2988.63 903.18 3049.61 903.18S3113.41 915.99 3175.59 915.99L3100 1142 L-100 1142 Z;M-100 883.73C-35.53 882.78 -34.33 872.75 25.98 872.75S89.01 882.99 151.97 882.99S215.96 915.11 277.95 915.11S342.37 864.95 403.94 864.95S469.71 915.56 529.92 915.56S593.83 869.16 655.91 869.16S719.26 905.56 781.89 905.56S846.03 889.09 907.87 889.09S971.24 926.82 1033.86 926.82S1097.98 870.09 1159.84 870.09S1223.67 926.07 1285.83 926.07S1349.4 887.7 1411.81 887.7S1476.61 920.51 1537.8 920.51S1602.98 866.58 1663.78 866.58S1729.07 907.24 1789.76 907.24S1853.71 867.79 1915.75 867.79S1981.44 918.5 2041.73 918.5S2106.52 890.58 2167.72 890.58S2232.81 916.83 2293.7 916.83S2358.23 870.63 2419.69 870.63S2483.71 883.77 2545.67 883.77S2608.82 877.52 2671.65 877.52S2735.92 925.95 2797.64 925.95S2860.94 879.47 2923.62 879.47S2987.33 918.39 3049.61 918.39S3114.87 874.24 3175.59 874.24L3100 1142 L-100 1142 Z;M-100 884.4C-36.46 872.05 -34.46 904.99 25.98 904.99S89.59 870.57 151.97 870.57S217.78 920.62 277.95 920.62S341.16 926.82 403.94 926.82S467.81 907.24 529.92 907.24S595.77 865.57 655.91 865.57S720.01 922.9 781.89 922.9S844.89 865.23 907.87 865.23S972.17 887.89 1033.86 887.89S1097.57 863.7 1159.84 863.7S1225.47 907.9 1285.83 907.9S1351.24 876.92 1411.81 876.92S1475.54 862.93 1537.8 862.93S1601.61 884.29 1663.78 884.29S1727.12 918.45 1789.76 918.45S1854.24 870.22 1915.75 870.22S1981.32 916.19 2041.73 916.19S2107.26 868 2167.72 868S2232.6 918.83 2293.7 918.83S2356.86 878.4 2419.69 878.4S2485.11 916.54 2545.67 916.54S2609.85 883.79 2671.65 883.79S2737.01 926.69 2797.64 926.69S2863.2 864.02 2923.62 864.02S2988.63 903.18 3049.61 903.18S3113.41 915.99 3175.59 915.99L3100 1142 L-100 1142 Z"></animate>
  <animateTransform attributeName="transform" type="translate" dur="7.142857142857142s" begin="-5s" repeatCount="indefinite" values="0;10;0" calcMode="spline" keySplines="0.3 0 0.7 1;0.3 0 0.7 1"></animateTransform>
</path><path d="M-100 899.87C-34.74 911.75 -33.93 943.82 30.08 943.82S97.62 901.42 160.16 901.42S226.38 946.66 290.24 946.66S355.89 912.82 420.33 912.82S485.48 944.02 550.41 944.02S617.68 903.49 680.49 903.49S746.04 947.18 810.57 947.18S876.44 939.68 940.65 939.68S1007.27 963.23 1070.73 963.23S1137.99 900.92 1200.81 900.92S1267.27 956.46 1330.89 956.46S1396.92 893.58 1460.98 893.58S1526.85 895.12 1591.06 895.12S1656.51 901.1 1721.14 901.1S1786.83 910.47 1851.22 910.47S1918.04 899.94 1981.3 899.94S2048.44 944.78 2111.38 944.78S2178.37 902.47 2241.46 902.47S2309.08 942.69 2371.54 942.69S2437.89 917.98 2501.63 917.98S2566.94 937.29 2631.71 937.29S2697.01 913.56 2761.79 913.56S2827 942.41 2891.87 942.41S2957.29 948.82 3021.95 948.82S3088.22 950.36 3152.03 950.36L3100 1142 L-100 1142 Z" fill="#0047a2" stroke-width="0">
  <animate attributeName="d" dur="4.761904761904762s" repeatCount="indefinite" values="M-100 899.87C-34.74 911.75 -33.93 943.82 30.08 943.82S97.62 901.42 160.16 901.42S226.38 946.66 290.24 946.66S355.89 912.82 420.33 912.82S485.48 944.02 550.41 944.02S617.68 903.49 680.49 903.49S746.04 947.18 810.57 947.18S876.44 939.68 940.65 939.68S1007.27 963.23 1070.73 963.23S1137.99 900.92 1200.81 900.92S1267.27 956.46 1330.89 956.46S1396.92 893.58 1460.98 893.58S1526.85 895.12 1591.06 895.12S1656.51 901.1 1721.14 901.1S1786.83 910.47 1851.22 910.47S1918.04 899.94 1981.3 899.94S2048.44 944.78 2111.38 944.78S2178.37 902.47 2241.46 902.47S2309.08 942.69 2371.54 942.69S2437.89 917.98 2501.63 917.98S2566.94 937.29 2631.71 937.29S2697.01 913.56 2761.79 913.56S2827 942.41 2891.87 942.41S2957.29 948.82 3021.95 948.82S3088.22 950.36 3152.03 950.36L3100 1142 L-100 1142 Z;M-100 902.4C-33.35 897.91 -33.28 948.67 30.08 948.67S95.9 893.26 160.16 893.26S227.07 954.7 290.24 954.7S355.92 909.55 420.33 909.55S486.27 963.2 550.41 963.2S617.64 905.79 680.49 905.79S747.88 953.76 810.57 953.76S878.37 918.52 940.65 918.52S1006.03 910.26 1070.73 910.26S1137.98 947.53 1200.81 947.53S1268.65 947.85 1330.89 947.85S1396.56 893.67 1460.98 893.67S1527.11 964.74 1591.06 964.74S1656.54 919.15 1721.14 919.15S1787.06 942.88 1851.22 942.88S1917.17 912.67 1981.3 912.67S2048.33 954.42 2111.38 954.42S2177.23 943.29 2241.46 943.29S2306.59 963.62 2371.54 963.62S2437.82 900.26 2501.63 900.26S2567.19 943.66 2631.71 943.66S2698.64 904.46 2761.79 904.46S2829.45 945.62 2891.87 945.62S2959.28 919.19 3021.95 919.19S3088.16 961.89 3152.03 961.89L3100 1142 L-100 1142 Z;M-100 899.87C-34.74 911.75 -33.93 943.82 30.08 943.82S97.62 901.42 160.16 901.42S226.38 946.66 290.24 946.66S355.89 912.82 420.33 912.82S485.48 944.02 550.41 944.02S617.68 903.49 680.49 903.49S746.04 947.18 810.57 947.18S876.44 939.68 940.65 939.68S1007.27 963.23 1070.73 963.23S1137.99 900.92 1200.81 900.92S1267.27 956.46 1330.89 956.46S1396.92 893.58 1460.98 893.58S1526.85 895.12 1591.06 895.12S1656.51 901.1 1721.14 901.1S1786.83 910.47 1851.22 910.47S1918.04 899.94 1981.3 899.94S2048.44 944.78 2111.38 944.78S2178.37 902.47 2241.46 902.47S2309.08 942.69 2371.54 942.69S2437.89 917.98 2501.63 917.98S2566.94 937.29 2631.71 937.29S2697.01 913.56 2761.79 913.56S2827 942.41 2891.87 942.41S2957.29 948.82 3021.95 948.82S3088.22 950.36 3152.03 950.36L3100 1142 L-100 1142 Z"></animate>
  <animateTransform attributeName="transform" type="translate" dur="4.761904761904762s" begin="-3.8095238095238093s" repeatCount="indefinite" values="0;10;0" calcMode="spline" keySplines="0.3 0 0.7 1;0.3 0 0.7 1"></animateTransform>
</path><path d="M-100 922.61C-32.04 937.98 -30.42 986.58 34.45 986.58S103.44 935.48 168.91 935.48S238.55 981.85 303.36 981.85S371.5 940.93 437.82 940.93S505.66 986.76 572.27 986.76S639.57 932.69 706.72 932.69S774.91 984.84 841.18 984.84S910.96 942.48 975.63 942.48S1043.87 973.07 1110.08 973.07S1177.9 919.85 1244.54 919.85S1312.66 986.43 1378.99 986.43S1446.8 940.71 1513.45 940.71S1582.73 976.15 1647.9 976.15S1716.97 940.39 1782.35 940.39S1852.06 979.84 1916.81 979.84S1986.13 947.66 2051.26 947.66S2119.96 977.76 2185.71 977.76S2254.58 919.35 2320.17 919.35S2388.53 973.64 2454.62 973.64S2523.6 930.92 2589.08 930.92S2657.88 987.86 2723.53 987.86S2793.24 980.79 2857.98 980.79S2925.21 990.43 2992.44 990.43S3061.39 935.92 3126.89 935.92L3100 1142 L-100 1142 Z" fill="#0c3697" stroke-width="0">
  <animate attributeName="d" dur="2.380952380952381s" repeatCount="indefinite" values="M-100 922.61C-32.04 937.98 -30.42 986.58 34.45 986.58S103.44 935.48 168.91 935.48S238.55 981.85 303.36 981.85S371.5 940.93 437.82 940.93S505.66 986.76 572.27 986.76S639.57 932.69 706.72 932.69S774.91 984.84 841.18 984.84S910.96 942.48 975.63 942.48S1043.87 973.07 1110.08 973.07S1177.9 919.85 1244.54 919.85S1312.66 986.43 1378.99 986.43S1446.8 940.71 1513.45 940.71S1582.73 976.15 1647.9 976.15S1716.97 940.39 1782.35 940.39S1852.06 979.84 1916.81 979.84S1986.13 947.66 2051.26 947.66S2119.96 977.76 2185.71 977.76S2254.58 919.35 2320.17 919.35S2388.53 973.64 2454.62 973.64S2523.6 930.92 2589.08 930.92S2657.88 987.86 2723.53 987.86S2793.24 980.79 2857.98 980.79S2925.21 990.43 2992.44 990.43S3061.39 935.92 3126.89 935.92L3100 1142 L-100 1142 Z;M-100 933.77C-32.05 938.13 -31.25 998.61 34.45 998.61S102.33 942.32 168.91 942.32S237.31 931.25 303.36 931.25S371.63 921.75 437.82 921.75S506.32 979.31 572.27 979.31S640.85 973.53 706.72 973.53S775.02 977.93 841.18 977.93S909.75 938.98 975.63 938.98S1044.83 997.57 1110.08 997.57S1178.63 939.25 1244.54 939.25S1313.67 979.9 1378.99 979.9S1448.42 946.21 1513.45 946.21S1583.42 928.34 1647.9 928.34S1717.96 932.73 1782.35 932.73S1851.39 985.38 1916.81 985.38S1984.37 936.33 2051.26 936.33S2119.01 978.75 2185.71 978.75S2253.66 938.08 2320.17 938.08S2387.69 992.36 2454.62 992.36S2522.26 972.61 2589.08 972.61S2658.46 976.07 2723.53 976.07S2791.61 928.41 2857.98 928.41S2926.84 985.11 2992.44 985.11S3061.57 944.02 3126.89 944.02L3100 1142 L-100 1142 Z;M-100 922.61C-32.04 937.98 -30.42 986.58 34.45 986.58S103.44 935.48 168.91 935.48S238.55 981.85 303.36 981.85S371.5 940.93 437.82 940.93S505.66 986.76 572.27 986.76S639.57 932.69 706.72 932.69S774.91 984.84 841.18 984.84S910.96 942.48 975.63 942.48S1043.87 973.07 1110.08 973.07S1177.9 919.85 1244.54 919.85S1312.66 986.43 1378.99 986.43S1446.8 940.71 1513.45 940.71S1582.73 976.15 1647.9 976.15S1716.97 940.39 1782.35 940.39S1852.06 979.84 1916.81 979.84S1986.13 947.66 2051.26 947.66S2119.96 977.76 2185.71 977.76S2254.58 919.35 2320.17 919.35S2388.53 973.64 2454.62 973.64S2523.6 930.92 2589.08 930.92S2657.88 987.86 2723.53 987.86S2793.24 980.79 2857.98 980.79S2925.21 990.43 2992.44 990.43S3061.39 935.92 3126.89 935.92L3100 1142 L-100 1142 Z"></animate>
  <animateTransform attributeName="transform" type="translate" dur="2.380952380952381s" begin="-2.142857142857143s" repeatCount="indefinite" values="0;10;0" calcMode="spline" keySplines="0.3 0 0.7 1;0.3 0 0.7 1"></animateTransform>
</path></g>
</svg>